<svg xmlns="http://www.w3.org/2000/svg" version="1.1" xmlns:xlink="http://www.w3.org/1999/xlink" xmlns:svgjs="http://svgjs.dev/svgjs" width="1000" height="245" viewBox="0 0 1000 245"><g transform="matrix(1,0,0,1,0.1066666666666265,-0.05934178891392605)"><svg viewBox="0 0 375 92" data-background-color="#8abe53" preserveAspectRatio="xMidYMid meet" height="245" width="1000" xmlns="http://www.w3.org/2000/svg" xmlns:xlink="http://www.w3.org/1999/xlink"><defs></defs><g id="tight-bounds" transform="matrix(1,0,0,1,-0.03976036071776434,0.022283447265635914)"><svg viewBox="0 0 375.07952880859375 91.95538330078125" height="91.95538330078125" width="375.07952880859375"><g><svg></svg></g><g><svg viewBox="0 0 375.07952880859375 91.95538330078125" height="91.95538330078125" width="375.07952880859375"><g transform="matrix(1,0,0,1,-10.220239639282227,-80.09356689453125)"><path d="M10.22 167.106v-87.012h375.08v87.012h-138.643l0-2.912h135.73v-81.188h-369.254v81.188h135.73l0 2.912z" fill="#ffffff" data-fill-palette-color="tertiary"></path><path d="M162.417 164.334c1.1 0.356 1.65 1.084 1.65 2.183v0c0 0.841-0.252 1.465-0.757 1.873-0.506 0.409-1.35 0.614-2.53 0.614v0h-3.178v-9.195h3.178c1.076 0 1.832 0.202 2.268 0.607 0.437 0.404 0.655 1.023 0.655 1.856v0c0 0.493-0.103 0.911-0.308 1.254-0.207 0.345-0.533 0.614-0.978 0.808zM158.778 160.804v3.093h2.002c1.14 0 1.714-0.514 1.722-1.54v0c0-0.566-0.125-0.966-0.376-1.201-0.251-0.235-0.7-0.352-1.346-0.352v0zM162.866 166.445c0-0.542-0.175-0.936-0.526-1.184-0.353-0.246-0.873-0.369-1.56-0.369v0h-2.002v3.117h2.002c0.76 0 1.298-0.125 1.613-0.376 0.315-0.251 0.473-0.647 0.473-1.188zM167.706 169.162c-0.607 0-1.043-0.121-1.31-0.364-0.267-0.243-0.4-0.651-0.4-1.225v0-8.831h1.14v8.527c0 0.323 0.051 0.544 0.153 0.663 0.1 0.116 0.292 0.175 0.575 0.174v0c0.226 0 0.429-0.024 0.607-0.072v0 1.043c-0.323 0.057-0.578 0.085-0.765 0.085zM171.928 162.296c0.712 0 1.254 0.119 1.625 0.357 0.372 0.239 0.619 0.559 0.74 0.958 0.121 0.401 0.182 0.905 0.182 1.511v0 3.882h-1.14v-0.667c-0.307 0.291-0.615 0.501-0.922 0.631-0.307 0.129-0.639 0.194-0.995 0.194v0c-0.421 0-0.801-0.091-1.14-0.274-0.34-0.181-0.608-0.444-0.805-0.789-0.199-0.343-0.298-0.749-0.299-1.218v0c0-0.728 0.226-1.292 0.679-1.693 0.453-0.4 1.063-0.599 1.832-0.599v0c0.607 0 1.152 0.133 1.638 0.4v0c-0.008-0.396-0.049-0.712-0.121-0.946-0.073-0.235-0.222-0.415-0.449-0.541-0.226-0.125-0.562-0.187-1.007-0.187v0h-0.898v-1.019zM171.576 168.179c0.275 0 0.564-0.065 0.869-0.194 0.302-0.129 0.599-0.323 0.89-0.582v0-1.529c-0.453-0.226-0.946-0.34-1.48-0.339v0c-0.429 0-0.788 0.103-1.08 0.308-0.291 0.207-0.437 0.553-0.436 1.038v0c0 0.453 0.124 0.783 0.371 0.99 0.246 0.205 0.535 0.308 0.866 0.308zM177.338 167.973h3.785v1.031h-5.059v-1.031l3.53-4.634h-3.311v-1.043h4.573v1.043zM182.858 161.034v-1.831h1.14v1.831zM182.858 169.004v-6.708h1.14v6.708zM189.372 162.15c0.825 0 1.438 0.218 1.839 0.655 0.4 0.437 0.599 1.156 0.599 2.16v0 4.039h-1.14v-4.039c0-0.631-0.107-1.08-0.321-1.347-0.215-0.267-0.594-0.4-1.135-0.4v0c-0.631 0-1.262 0.275-1.892 0.825v0 4.961h-1.141v-6.708h1.141v0.716c0.663-0.574 1.347-0.861 2.05-0.862zM198.421 162.296h1.14v6.842c0 0.914-0.212 1.628-0.635 2.142-0.425 0.513-1.168 0.769-2.227 0.769v0c-0.518 0-0.964-0.032-1.34-0.097-0.377-0.065-0.763-0.178-1.159-0.34v0-1.128c0.372 0.17 0.744 0.298 1.116 0.383 0.372 0.084 0.716 0.126 1.031 0.127v0c0.582 0 1.023-0.074 1.322-0.224 0.299-0.15 0.5-0.365 0.602-0.643 0.1-0.28 0.15-0.65 0.15-1.111v0-0.861c-0.639 0.542-1.286 0.813-1.941 0.813v0c-0.906 0-1.627-0.295-2.164-0.886-0.539-0.59-0.808-1.44-0.808-2.547v0c0-1.116 0.271-1.968 0.813-2.555 0.542-0.586 1.262-0.878 2.159-0.878v0c0.647 0 1.294 0.275 1.941 0.825v0zM196.638 167.912c0.59 0 1.185-0.251 1.783-0.752v0-3.239c-0.582-0.501-1.177-0.752-1.783-0.752v0c-0.631 0-1.114 0.208-1.448 0.624-0.336 0.417-0.505 0.998-0.505 1.742v0c0 0.768 0.166 1.356 0.497 1.764 0.332 0.409 0.817 0.614 1.456 0.613zM203.273 169.162c-0.607 0-1.043-0.121-1.31-0.364-0.267-0.243-0.4-0.651-0.4-1.225v0-8.831h1.14v8.527c0 0.323 0.051 0.544 0.153 0.663 0.1 0.116 0.292 0.175 0.575 0.174v0c0.226 0 0.429-0.024 0.607-0.072v0 1.043c-0.323 0.057-0.578 0.085-0.765 0.085zM209.678 162.296h1.153l-2.972 7.788c-0.21 0.55-0.4 0.958-0.57 1.225-0.17 0.267-0.37 0.457-0.6 0.57-0.231 0.113-0.549 0.17-0.953 0.17v0c-0.235 0-0.473-0.032-0.716-0.097v0-1.031c0.21 0.049 0.421 0.073 0.631 0.073v0c0.275 0 0.491-0.081 0.648-0.243 0.159-0.162 0.331-0.481 0.517-0.958v0l0.315-0.813-2.548-6.684h1.189l1.929 5.192zM220.608 160.864h-4.391v3.154h3.785v1.056h-3.785v3.93h-1.177v-9.195h5.568zM224.332 162.296c0.712 0 1.254 0.119 1.626 0.357 0.372 0.239 0.619 0.559 0.74 0.958 0.121 0.401 0.182 0.905 0.182 1.511v0 3.882h-1.141v-0.667c-0.307 0.291-0.615 0.501-0.922 0.631-0.307 0.129-0.639 0.194-0.994 0.194v0c-0.421 0-0.801-0.091-1.141-0.274-0.34-0.181-0.609-0.444-0.808-0.789-0.197-0.343-0.296-0.749-0.295-1.218v0c0-0.728 0.226-1.292 0.679-1.693 0.453-0.4 1.063-0.599 1.832-0.599v0c0.607 0 1.152 0.133 1.637 0.4v0c-0.008-0.396-0.049-0.712-0.121-0.946-0.073-0.235-0.222-0.415-0.449-0.541-0.226-0.125-0.562-0.187-1.007-0.187v0h-0.897v-1.019zM223.98 168.179c0.275 0 0.564-0.065 0.867-0.194 0.304-0.129 0.602-0.323 0.892-0.582v0-1.529c-0.453-0.226-0.946-0.34-1.48-0.339v0c-0.429 0-0.788 0.103-1.079 0.308-0.291 0.207-0.437 0.553-0.437 1.038v0c0 0.453 0.124 0.783 0.371 0.99 0.246 0.205 0.535 0.308 0.866 0.308zM230.798 169.21c-0.493 0-0.93-0.04-1.31-0.121-0.38-0.081-0.776-0.218-1.189-0.412v0-1.129c0.768 0.429 1.601 0.643 2.499 0.643v0c0.453 0 0.778-0.091 0.975-0.274 0.199-0.181 0.298-0.421 0.299-0.72v0c0-0.291-0.079-0.505-0.238-0.643-0.157-0.137-0.413-0.255-0.769-0.352v0l-0.789-0.194c-0.566-0.137-1.011-0.356-1.334-0.655-0.323-0.299-0.485-0.74-0.485-1.322v0c0-0.607 0.198-1.08 0.594-1.42 0.396-0.34 0.979-0.509 1.747-0.509v0c0.396 0 0.764 0.038 1.104 0.114 0.34 0.078 0.679 0.185 1.019 0.323v0 1.067c-0.332-0.154-0.659-0.273-0.983-0.359-0.323-0.084-0.691-0.126-1.104-0.126v0c-0.429 0-0.738 0.082-0.927 0.247-0.191 0.167-0.286 0.375-0.286 0.626v0c0 0.275 0.082 0.484 0.248 0.626 0.167 0.141 0.408 0.252 0.723 0.333v0l0.8 0.181c0.404 0.097 0.738 0.218 1.002 0.364 0.262 0.146 0.467 0.349 0.616 0.612 0.15 0.264 0.226 0.614 0.226 1.05v0c0 0.655-0.22 1.161-0.66 1.517-0.442 0.356-1.034 0.534-1.778 0.533zM237.918 163.436h-1.552v3.833c0 0.323 0.05 0.544 0.15 0.663 0.102 0.116 0.29 0.175 0.565 0.174v0c0.243 0 0.501-0.032 0.777-0.097v0 1.032c-0.364 0.081-0.687 0.121-0.971 0.121v0c-0.615 0-1.046-0.125-1.293-0.376-0.246-0.251-0.369-0.671-0.369-1.262v0-4.088h-0.873v-1.055h0.873v-2.305h1.141v2.305h1.552z" fill="#ffffff" data-fill-palette-color="secondary"></path></g><g transform="matrix(1,0,0,1,29.331764404296877,29.828042447657143)"><svg viewBox="0 0 316.416 32.29929840546696" height="32.29929840546696" width="316.416"><g><svg viewBox="0 0 316.416 32.29929840546696" height="32.29929840546696" width="316.416"><g><svg viewBox="0 0 316.416 32.29929840546696" height="32.29929840546696" width="316.416"><g><svg viewBox="0 0 316.416 32.29929840546696" height="32.29929840546696" width="316.416"><g><svg viewBox="0 0 316.416 32.29929840546696" height="32.29929840546696" width="316.416"><g><svg viewBox="0 0 316.416 32.29929840546696" height="32.29929840546696" width="316.416"><g transform="matrix(1,0,0,1,0,0)"><svg width="316.416" viewBox="2 -35.349998474121094 351.1600036621094 35.849998474121094" height="32.29929840546696" data-palette-color="#ffffff"><path d="M18.35 0L2.2 0Q2 0 2-0.25L2-0.25 2.05-34.55Q2.05-34.8 2.3-34.8L2.3-34.8 7.85-34.8Q8.1-34.8 8.1-34.55L8.1-34.55 8.05-6.15 18.35-6.15Q18.6-6.15 18.6-5.9L18.6-5.9 18.6-0.25Q18.6 0 18.35 0L18.35 0ZM38.2 0L22.05 0Q21.85 0 21.85-0.25L21.85-0.25 21.9-34.6Q21.9-34.8 22.1-34.8L22.1-34.8 38.15-34.8Q38.35-34.8 38.35-34.55L38.35-34.55 38.35-28.95Q38.35-28.75 38.15-28.75L38.15-28.75 27.9-28.75 27.9-20.95 38.15-20.95Q38.35-20.95 38.35-20.75L38.35-20.75 38.4-15.1Q38.4-14.9 38.2-14.9L38.2-14.9 27.9-14.9 27.9-6.15 38.2-6.15Q38.4-6.15 38.4-5.9L38.4-5.9 38.4-0.2Q38.4 0 38.2 0L38.2 0ZM40.64-0.25L40.64-0.25 46.84-34.6Q46.89-34.8 47.09-34.8L47.09-34.8 54.34-34.8Q54.55-34.8 54.59-34.6L54.59-34.6 60.55-0.25Q60.59 0 60.34 0L60.34 0 54.8 0Q54.59 0 54.55-0.25L54.55-0.25 53.99-3.9 47.2-3.9 46.64-0.25Q46.59 0 46.39 0L46.39 0 40.84 0Q40.64 0 40.64-0.25ZM50.45-23.3L48.2-9.25 52.99-9.25 50.95-23.3 50.64-25.15 50.45-23.3ZM69.54 0L63.89 0Q63.69 0 63.69-0.25L63.69-0.25 63.79-34.6Q63.79-34.8 63.99-34.8L63.99-34.8 74.09-34.8Q76.79-34.8 79.07-33.48 81.34-32.15 82.69-29.93 84.04-27.7 84.04-24.9L84.04-24.9Q84.04-23.05 83.49-21.58 82.94-20.1 82.19-19.07 81.44-18.05 80.84-17.55L80.84-17.55Q83.54-14.55 83.54-10.5L83.54-10.5 83.59-0.25Q83.59 0 83.34 0L83.34 0 77.69 0Q77.49 0 77.49-0.15L77.49-0.15 77.49-10.5Q77.49-12.3 76.22-13.63 74.94-14.95 73.09-14.95L73.09-14.95 69.79-14.95 69.74-0.25Q69.74 0 69.54 0L69.54 0ZM69.79-28.8L69.79-20.95 74.09-20.95Q75.64-20.95 76.84-22.1 78.04-23.25 78.04-24.9L78.04-24.9Q78.04-26.5 76.87-27.65 75.69-28.8 74.09-28.8L74.09-28.8 69.79-28.8ZM93.24 0L88.24 0Q87.84 0 87.84-0.35L87.84-0.35 87.79-34.4Q87.79-34.8 88.19-34.8L88.19-34.8 92.69-34.8 101.14-15.1 100.89-34.4Q100.89-34.8 101.34-34.8L101.34-34.8 106.29-34.8Q106.59-34.8 106.59-34.4L106.59-34.4 106.64-0.3Q106.64 0 106.39 0L106.39 0 101.99 0 93.34-18.4 93.69-0.4Q93.69 0 93.24 0L93.24 0ZM129.04 0L123.39 0Q123.19 0 123.19-0.25L123.19-0.25 123.19-28.75 116.69-28.75Q116.44-28.75 116.44-29L116.44-29 116.49-34.6Q116.49-34.8 116.69-34.8L116.69-34.8 135.69-34.8Q135.94-34.8 135.94-34.6L135.94-34.6 135.94-29Q135.94-28.75 135.74-28.75L135.74-28.75 129.19-28.75 129.24-0.25Q129.24 0 129.04 0L129.04 0ZM146.53 0.5L146.53 0.5Q143.83 0.5 141.61-0.88 139.38-2.25 138.03-4.53 136.68-6.8 136.68-9.55L136.68-9.55 136.73-25.4Q136.73-28.15 138.06-30.4 139.38-32.65 141.63-34 143.88-35.35 146.53-35.35L146.53-35.35Q149.23-35.35 151.43-34 153.63-32.65 154.96-30.4 156.28-28.15 156.28-25.4L156.28-25.4 156.33-9.55Q156.33-6.8 155.01-4.53 153.68-2.25 151.46-0.88 149.23 0.5 146.53 0.5ZM146.53-5.55L146.53-5.55Q148.03-5.55 149.16-6.78 150.28-8 150.28-9.55L150.28-9.55 150.23-25.4Q150.23-27.05 149.18-28.2 148.13-29.35 146.53-29.35L146.53-29.35Q144.98-29.35 143.88-28.23 142.78-27.1 142.78-25.4L142.78-25.4 142.78-9.55Q142.78-7.9 143.88-6.73 144.98-5.55 146.53-5.55ZM169.63 0.5L169.63 0.5Q166.98 0.5 164.73-0.88 162.48-2.25 161.16-4.55 159.83-6.85 159.83-9.6L159.83-9.6 159.93-34.6Q159.93-34.8 160.13-34.8L160.13-34.8 165.73-34.8Q165.93-34.8 165.93-34.6L165.93-34.6 165.93-9.6Q165.93-7.9 167.01-6.73 168.08-5.55 169.63-5.55L169.63-5.55Q171.23-5.55 172.31-6.73 173.38-7.9 173.38-9.6L173.38-9.6 173.38-34.6Q173.38-34.8 173.58-34.8L173.58-34.8 179.18-34.8Q179.38-34.8 179.38-34.6L179.38-34.6 179.48-9.6Q179.48-6.8 178.16-4.5 176.83-2.2 174.61-0.85 172.38 0.5 169.63 0.5ZM192.63 0.5L192.63 0.5Q189.88 0.5 187.65-0.88 185.43-2.25 184.13-4.55 182.83-6.85 182.83-9.7L182.83-9.7 182.88-25.3Q182.88-28.05 184.15-30.33 185.43-32.6 187.65-33.98 189.88-35.35 192.63-35.35L192.63-35.35Q195.38-35.35 197.58-34 199.78-32.65 201.08-30.38 202.38-28.1 202.38-25.3L202.38-25.3 202.38-23Q202.38-22.8 202.18-22.8L202.18-22.8 196.58-22.8Q196.38-22.8 196.38-23L196.38-23 196.38-25.3Q196.38-26.95 195.3-28.15 194.23-29.35 192.63-29.35L192.63-29.35Q190.83-29.35 189.88-28.13 188.93-26.9 188.93-25.3L188.93-25.3 188.93-9.7Q188.93-7.85 190-6.7 191.08-5.55 192.63-5.55L192.63-5.55Q194.23-5.55 195.3-6.83 196.38-8.1 196.38-9.7L196.38-9.7 196.38-12Q196.38-12.2 196.58-12.2L196.58-12.2 202.23-12.2Q202.43-12.2 202.43-12L202.43-12 202.43-9.7Q202.43-6.85 201.1-4.55 199.78-2.25 197.58-0.88 195.38 0.5 192.63 0.5ZM211.93 0L206.28 0Q206.08 0 206.08-0.25L206.08-0.25 206.13-34.6Q206.13-34.8 206.38-34.8L206.38-34.8 211.93-34.8Q212.18-34.8 212.18-34.6L212.18-34.6 212.13-21 219.63-21 219.63-34.6Q219.63-34.8 219.83-34.8L219.83-34.8 225.38-34.8Q225.63-34.8 225.63-34.6L225.63-34.6 225.73-0.25Q225.73 0 225.48 0L225.48 0 219.88 0Q219.63 0 219.63-0.25L219.63-0.25 219.63-14.95 212.13-14.95 212.13-0.25Q212.13 0 211.93 0L211.93 0ZM247.87 0L242.22 0Q242.02 0 242.02-0.25L242.02-0.25 242.02-28.75 235.52-28.75Q235.27-28.75 235.27-29L235.27-29 235.32-34.6Q235.32-34.8 235.52-34.8L235.52-34.8 254.52-34.8Q254.77-34.8 254.77-34.6L254.77-34.6 254.77-29Q254.77-28.75 254.57-28.75L254.57-28.75 248.02-28.75 248.07-0.25Q248.07 0 247.87 0L247.87 0ZM267.62 0L261.87 0Q261.72 0 261.72-0.2L261.72-0.2 261.77-14.4 255.07-34.6Q255.02-34.8 255.22-34.8L255.22-34.8 260.77-34.8Q261.02-34.8 261.07-34.6L261.07-34.6 264.77-21.15 268.52-34.6Q268.57-34.8 268.77-34.8L268.77-34.8 274.37-34.8Q274.57-34.8 274.52-34.6L274.52-34.6 267.77-14.6 267.82-0.2Q267.82 0 267.62 0L267.62 0ZM283.12 0L277.52 0Q277.27 0 277.27-0.25L277.27-0.25 277.37-34.6Q277.37-34.8 277.57-34.8L277.57-34.8 287.17-34.8Q291.77-34.8 294.44-32 297.12-29.2 297.12-24.4L297.12-24.4Q297.12-20.85 295.72-18.25 294.32-15.65 292.07-14.25 289.82-12.85 287.17-12.85L287.17-12.85 283.37-12.85 283.37-0.25Q283.37 0 283.12 0L283.12 0ZM283.37-28.8L283.37-18.9 287.17-18.9Q288.77-18.9 289.94-20.43 291.12-21.95 291.12-24.4L291.12-24.4Q291.12-26.35 290.07-27.6 289.02-28.85 287.17-28.85L287.17-28.85 283.37-28.8ZM306.41 0L300.76 0Q300.51 0 300.51-0.25L300.51-0.25 300.56-34.6Q300.56-34.8 300.76-34.8L300.76-34.8 306.36-34.8Q306.56-34.8 306.56-34.6L306.56-34.6 306.61-0.25Q306.61 0 306.41 0L306.41 0ZM316.46 0L311.46 0Q311.06 0 311.06-0.35L311.06-0.35 311.01-34.4Q311.01-34.8 311.41-34.8L311.41-34.8 315.91-34.8 324.36-15.1 324.11-34.4Q324.11-34.8 324.56-34.8L324.56-34.8 329.51-34.8Q329.81-34.8 329.81-34.4L329.81-34.4 329.86-0.3Q329.86 0 329.61 0L329.61 0 325.21 0 316.56-18.4 316.91-0.4Q316.91 0 316.46 0L316.46 0ZM343.36 0.5L343.36 0.5Q340.66 0.5 338.46-0.85 336.26-2.2 334.93-4.48 333.61-6.75 333.61-9.55L333.61-9.55 333.61-25.4Q333.61-28.1 334.93-30.38 336.26-32.65 338.48-34 340.71-35.35 343.36-35.35L343.36-35.35Q346.11-35.35 348.33-34.02 350.56-32.7 351.86-30.45 353.16-28.2 353.16-25.4L353.16-25.4 353.16-23.1Q353.16-22.9 352.91-22.9L352.91-22.9 347.31-22.9Q347.11-22.9 347.11-23.1L347.11-23.1 347.11-25Q347.11-26.9 346.03-28.15 344.96-29.4 343.36-29.4L343.36-29.4Q341.91-29.4 340.78-28.2 339.66-27 339.66-25.4L339.66-25.4 339.66-9.55Q339.66-7.9 340.76-6.73 341.86-5.55 343.36-5.55L343.36-5.55Q344.96-5.55 346.03-6.7 347.11-7.85 347.11-9.55L347.11-9.55 347.11-12 343.61-12Q343.36-12 343.36-12.25L343.36-12.25 343.36-17.85Q343.36-18.1 343.61-18.1L343.61-18.1 352.96-18.1Q353.16-18.1 353.16-17.85L353.16-17.85 353.16-9.55Q353.16-6.75 351.83-4.48 350.51-2.2 348.31-0.85 346.11 0.5 343.36 0.5Z" opacity="1" transform="matrix(1,0,0,1,0,0)" fill="#ffffff" class="undefined-text-0" data-fill-palette-color="primary" id="text-0"></path></svg></g></svg></g></svg></g></svg></g><g></g></svg></g></svg></g></svg></g></svg></g></svg><rect width="375.07952880859375" height="91.95538330078125" fill="none" stroke="none" visibility="hidden"></rect></g></svg></g></svg>