<svg xmlns="http://www.w3.org/2000/svg" version="1.1" xmlns:xlink="http://www.w3.org/1999/xlink" xmlns:svgjs="http://svgjs.dev/svgjs" width="1000" height="623" viewBox="0 0 1000 623"><g transform="matrix(1,0,0,1,-0.6060297767147063,0.2522267206477409)"><svg viewBox="0 0 396 247" data-background-color="#bb84e8" preserveAspectRatio="xMidYMid meet" height="623" width="1000" xmlns="http://www.w3.org/2000/svg" xmlns:xlink="http://www.w3.org/1999/xlink"><defs></defs><g id="tight-bounds" transform="matrix(1,0,0,1,0.23998783926816714,-0.09999999999999432)"><svg viewBox="0 0 395.52 247.2" height="247.2" width="395.52"><g><svg></svg></g><g><svg viewBox="0 0 395.52 247.2" height="247.2" width="395.52"><g><path d="M111.407 193.052c-4.298-0.316-9.15-0.616-14.554-0.901-5.404-0.316-10.461-0.521-15.17-0.616-4.709-0.063-8.454-0.095-11.236-0.095h-68.741l-0.711-12.515 15.075-3.935c0.284-0.759 0.553-3.034 0.806-6.827 0.043-0.729 0.083-1.486 0.12-2.27h36.323c0.167 2.671 0.393 4.708 0.677 6.11 2.781 0.442 5.641 0.743 8.581 0.901 2.939 0.158 6.495 0.237 10.667 0.237h6.684c2.939 0 5.752-0.19 8.439-0.569 2.718-0.379 4.772-0.727 6.163-1.043l2.864-5.636h21.528zM16.876 78.61c-0.253-3.635-0.521-5.847-0.806-6.637l-15.075-3.935 0.711-12.468h71.301l0.664 12.942-19.2 3.698c-0.158 0.474-0.395 2.449-0.712 5.926-0.081 0.986-0.156 2.043-0.226 3.171l-36.513 0c-0.044-0.943-0.092-1.842-0.144-2.697zM242.205 54.148l3.554 27.159h-19.239l-3.515-10.472c-1.549-0.316-3.255-0.506-5.12-0.569-1.833-0.095-3.919-0.142-6.258-0.142-1.391 0-10.208 0-11.663 0-1.454 0-2.497 0.158-3.128 0.474 0 0.917-0.032 3.808-0.095 8.676-0.013 0.66-0.025 1.338-0.038 2.033l-36.297 0c-0.009-0.695-0.018-1.373-0.027-2.033-0.063-4.867-0.174-7.759-0.332-8.676-0.474-0.316-1.438-0.474-2.892-0.474-1.485 0-2.923 0-4.314 0h-7.632c-2.307 0-4.504 0.047-6.59 0.142-2.086 0.063-3.903 0.253-5.452 0.569l-3.2 10.472-19.198 0 2.961-27.159c1.707 0.158 4.093 0.284 7.159 0.379 3.097 0.063 6.463 0.174 10.097 0.332 3.635 0.158 7.143 0.316 10.525 0.474 3.382 0.158 6.163 0.237 8.344 0.237h56.462c2.181 0 4.962-0.079 8.344-0.237 3.382-0.158 6.89-0.316 10.524-0.474 3.635-0.158 7.001-0.269 10.098-0.332 3.066-0.095 5.373-0.221 6.922-0.379zM197.073 174.99l20.385 3.508-0.711 12.942h-76.611l-0.711-12.942 20.385-3.508c0.199-2.426 0.36-5.458 0.484-9.097l36.48 0c0.099 3.639 0.199 6.671 0.299 9.097zM388.978 54.148l3.555 27.159h-19.268l-3.534-10.472c-1.517-0.316-3.208-0.506-5.073-0.569-1.865-0.095-3.951-0.142-6.257-0.142-1.391 0-10.208 0-11.663 0-1.485 0-2.528 0.158-3.129 0.474 0 0.917-0.047 3.808-0.142 8.676-0.009 0.66-0.017 1.338-0.026 2.033h-36.261c-0.009-0.695-0.018-1.373-0.027-2.033-0.095-4.867-0.221-7.759-0.379-8.676-0.442-0.316-1.406-0.474-2.892-0.474-1.454 0-2.876 0-4.267 0h-7.632c-2.307 0-4.504 0.047-6.59 0.142-2.086 0.063-3.903 0.253-5.452 0.569l-3.2 10.472-19.198 0 2.961-27.159c1.675 0.158 4.061 0.284 7.158 0.379 3.097 0.063 6.463 0.174 10.098 0.332 3.603 0.158 7.111 0.316 10.525 0.474 3.382 0.158 6.147 0.237 8.296 0.237h56.51c2.149 0 4.93-0.079 8.344-0.237 3.382-0.158 6.89-0.316 10.524-0.474 3.635-0.158 6.985-0.269 10.051-0.332 3.097-0.095 5.42-0.221 6.969-0.379zM343.846 174.99l20.338 3.508-0.663 12.942h-76.658l-0.664-12.942 20.338-3.508c0.199-2.426 0.366-5.458 0.502-9.097l36.509 0c0.099 3.639 0.199 6.671 0.298 9.097z" fill="#ffffff" data-fill-palette-color="tertiary"></path></g><g transform="matrix(1,0,0,1,0,87.31128305549545)"><svg viewBox="0 0 395.52 72.57743388900909" height="72.57743388900909" width="395.52"><g><svg viewBox="0 0 395.52 72.57743388900909" height="72.57743388900909" width="395.52"><g><svg viewBox="0 0 395.52 72.57743388900909" height="72.57743388900909" width="395.52"><g><svg viewBox="0 0 395.52 72.57743388900909" height="72.57743388900909" width="395.52"><g><svg viewBox="0 0 395.52 72.57743388900909" height="72.57743388900909" width="395.52"><g><svg viewBox="0 0 395.52 41.14544271125575" height="41.14544271125575" width="395.52"><g transform="matrix(1,0,0,1,0,0)"><svg width="395.52" viewBox="1.6100000143051147 -34.130001068115234 435.07000732421875 45.26000213623047" height="41.14544271125575" data-palette-color="#ffffff"><path d="M27.44-8.84L24.9 0.34Q23.54 0.24 21.83 0.15 20.12 0.05 18.63 0.02 17.14 0 16.26 0L16.26 0 1.76 0 1.61-2.64 4.79-3.47Q4.88-3.71 4.96-4.91 5.03-6.1 5.05-7.76 5.08-9.42 5.08-11.13L5.08-11.13 5.08-17.58Q5.08-19.38 5.05-21.02 5.03-22.66 4.96-23.8 4.88-24.95 4.79-25.2L4.79-25.2 1.61-26.03 1.76-28.66 16.8-28.66 16.94-25.93 12.89-25.15Q12.84-25 12.74-23.9 12.65-22.8 12.6-21.14 12.55-19.48 12.55-17.58L12.55-17.58 12.55-11.13Q12.55-8.11 12.6-6.45 12.65-4.79 12.79-4.1L12.79-4.1Q13.67-3.96 14.6-3.91 15.53-3.86 16.85-3.86L16.85-3.86 18.26-3.86Q19.19-3.86 20.04-3.98 20.9-4.1 21.34-4.2L21.34-4.2 24.12-9.67 27.44-8.84ZM40.48 0.39L40.48 0.39Q37.2 0.39 34.69-1.07 32.18-2.54 30.76-5.03 29.34-7.52 29.34-10.5L29.34-10.5Q29.34-13.87 30.95-16.46 32.57-19.04 35.15-20.53 37.74-22.02 40.67-22.02L40.67-22.02Q45.07-22.02 47.53-19.36 50-16.7 50-12.4L50-12.4 50-11.13 35.74-11.13 35.74-13.82 44.68-13.82 43.8-12.45 43.8-14.36Q43.8-16.5 42.89-17.77 41.99-19.04 40.28-19.04L40.28-19.04Q39.16-19.04 38.28-18.41 37.4-17.77 36.89-16.48 36.37-15.19 36.37-13.23L36.37-13.23 36.37-12.06Q36.37-8.84 38.18-6.79 39.99-4.74 43.06-4.74L43.06-4.74Q44.72-4.74 46.09-5.35 47.46-5.96 48.73-7.37L48.73-7.37 50.29-5.91Q48.92-2.83 46.31-1.22 43.7 0.39 40.48 0.39ZM60.69 0.39L60.69 0.39Q58.34 0.39 56.68-0.61 55.02-1.61 54.15-3.05 53.27-4.49 53.27-5.71L53.27-5.71Q53.27-7.57 54.37-8.79 55.46-10.01 57.76-10.64L57.76-10.64 65.47-12.79 65.47-14.26Q65.47-15.28 64.86-16.16 64.25-17.04 63.23-17.63 62.2-18.21 61.08-18.21L61.08-18.21Q60.4-18.21 60.13-17.87 59.86-17.53 59.76-16.65L59.76-16.65 59.47-13.33Q56.83-12.84 55.17-13.53 53.51-14.21 53.51-15.82L53.51-15.82Q53.51-16.85 54.56-17.9 55.61-18.95 57.17-19.82 58.74-20.7 60.32-21.31 61.91-21.92 62.93-22.02L62.93-22.02Q67.52-22.02 70.19-20.02 72.85-18.02 72.85-14.55L72.85-14.55 72.7-8.25Q72.7-6.74 72.8-6.01 72.9-5.27 73.09-4.79L73.09-4.79 76.36-4.2 76.36-1.95 72.9-0.44Q71.97 0 71.16 0.2 70.36 0.39 69.58 0.39L69.58 0.39Q67.52 0.39 66.69-1.66L66.69-1.66 65.72-4 66.84-3.76Q65.38-1.86 63.76-0.73 62.15 0.39 60.69 0.39ZM63.57-4.49L63.57-4.49Q64.11-4.49 64.62-4.69 65.13-4.88 65.57-5.27L65.57-5.27 65.57-9.91 62.98-9.57Q61.76-9.47 61.23-8.89 60.69-8.3 60.69-7.37L60.69-7.37Q60.69-6.3 61.57-5.4 62.45-4.49 63.57-4.49ZM92.08 0L77.29 0 77.14-2.39 80.17-3.27Q80.22-3.47 80.27-4.27 80.31-5.08 80.36-6.1 80.41-7.13 80.41-8.06L80.41-8.06 80.46-11.72Q80.46-13.09 80.39-14.09 80.31-15.09 80.07-16.5L80.07-16.5 76.95-17.19 76.95-19.53 86.03-21.92 87.49-21.04 87.3-17.19 87.44-17.14Q88.81-19.87 90.23-20.85 91.64-21.83 93.25-21.83L93.25-21.83Q94.62-21.83 95.7-21.02 96.77-20.21 96.77-18.51L96.77-18.51Q96.77-16.85 95.62-15.84 94.47-14.84 92.96-14.84L92.96-14.84Q91.69-14.84 90.72-15.28 89.74-15.72 88.52-16.94L88.52-16.94 90.13-16.85Q89.35-16.36 88.74-15.58 88.13-14.79 87.69-13.92L87.69-13.92 87.74-10.25Q87.79-8.3 87.81-6.81 87.83-5.32 87.88-4.42 87.93-3.52 87.98-3.27L87.98-3.27 92.23-2.49 92.08 0ZM111.42 0L98.13 0 97.99-2.39 101.02-3.27Q101.06-3.47 101.11-4.25 101.16-5.03 101.21-6.05 101.26-7.08 101.26-8.06L101.26-8.06 101.31-11.72Q101.31-13.18 101.24-14.16 101.16-15.14 100.92-16.5L100.92-16.5 97.79-17.19 97.79-19.53 107.02-21.92 108.53-21.04 108.24-18.02 108.39-17.97Q109.85-19.97 111.73-21 113.61-22.02 115.71-22.02L115.71-22.02Q117.86-22.02 119.52-20.95 121.18-19.87 122.16-17.87 123.13-15.87 123.13-13.09L123.13-13.09 123.13-8.15Q123.13-6.54 123.18-5.1 123.23-3.66 123.33-3.27L123.33-3.27 126.36-2.39 126.21 0 113.22 0 113.08-2.39 115.76-3.27Q115.86-3.81 115.91-4.69 115.96-5.57 115.98-6.54 116.01-7.52 116.01-8.2L116.01-8.2 116.01-11.91Q116.01-13.72 115.49-14.82 114.98-15.92 114.15-16.43 113.32-16.94 112.2-16.94L112.2-16.94Q111.12-16.94 110.17-16.48 109.22-16.02 108.49-15.09L108.49-15.09 108.49-7.96Q108.49-6.54 108.56-5.1 108.63-3.66 108.68-3.27L108.68-3.27 111.56-2.39 111.42 0ZM165.37-28.96L165.37-28.96 166.54-20.02 163.22-19.78 161.31-25.44Q160.82-25.54 160.24-25.56 159.65-25.59 158.92-25.59L158.92-25.59 157.36-25.59Q156.92-25.59 156.45-25.59 155.99-25.59 155.8-25.49L155.8-25.49Q155.8-25.2 155.77-23.66 155.75-22.12 155.72-19.97 155.7-17.82 155.7-15.53L155.7-15.53 155.7-11.67Q155.7-9.08 155.75-6.88 155.8-4.69 155.84-3.47L155.84-3.47 160.14-2.73 159.99 0 143.83 0 143.69-2.73 147.98-3.47Q148.08-4.69 148.13-6.88 148.18-9.08 148.18-11.67L148.18-11.67 148.18-15.53Q148.18-17.82 148.15-19.97 148.13-22.12 148.11-23.66 148.08-25.2 148.03-25.49L148.03-25.49Q147.89-25.59 147.42-25.59 146.96-25.59 146.52-25.59L146.52-25.59 144.91-25.59Q144.17-25.59 143.52-25.56 142.86-25.54 142.37-25.44L142.37-25.44 140.61-19.68 137.29-19.97 138.27-28.96Q138.8-28.91 139.78-28.88 140.76-28.86 141.9-28.81 143.05-28.76 144.13-28.71 145.2-28.66 145.88-28.66L145.88-28.66 157.8-28.66Q158.48-28.66 159.56-28.71 160.63-28.76 161.78-28.81 162.92-28.86 163.9-28.88 164.88-28.91 165.37-28.96ZM178.89 0.39L178.89 0.39Q175.42 0.39 172.76-1 170.1-2.39 168.59-4.88 167.07-7.37 167.07-10.55L167.07-10.55Q167.07-14.26 168.78-16.82 170.49-19.38 173.25-20.7 176.01-22.02 179.08-22.02L179.08-22.02Q182.4-22.02 184.94-20.63 187.48-19.24 188.92-16.77 190.36-14.31 190.36-11.08L190.36-11.08Q190.36-7.86 188.83-5.25 187.29-2.64 184.67-1.12 182.06 0.39 178.89 0.39ZM179.38-3.03L179.38-3.03Q180.5-3.03 181.21-3.74 181.92-4.44 182.28-5.88 182.65-7.32 182.65-9.33L182.65-9.33Q182.65-13.57 181.45-16.21 180.26-18.85 178.25-18.85L178.25-18.85Q176.64-18.85 175.74-17.07 174.84-15.28 174.84-12.16L174.84-12.16Q174.84-9.62 175.42-7.54 176.01-5.47 177.06-4.25 178.11-3.03 179.38-3.03ZM217.41-4.74L217.41-4.74 220.68-4.1 220.68-1.81 211.75 0.63 210.23-0.1 210.28-3.71 210.14-3.76Q208.77-1.32 207.04-0.42 205.3 0.49 203.59 0.49L203.59 0.49Q199.93 0.49 197.73-1.78 195.54-4.05 195.54-8.54L195.54-8.54 195.54-12.7Q195.54-13.87 195.49-14.79 195.44-15.72 195.34-16.5L195.34-16.5 192.02-17.19 192.02-19.53 201.49-21.92 203.06-21.04Q202.96-19.63 202.86-17.43 202.76-15.23 202.76-13.04L202.76-13.04 202.71-9.38Q202.71-6.98 203.74-5.83 204.77-4.69 206.67-4.69L206.67-4.69Q207.55-4.69 208.48-5.2 209.4-5.71 210.09-6.74L210.09-6.74 210.09-10.94Q210.09-12.26 210.06-13.16 210.04-14.06 209.99-14.82 209.94-15.58 209.84-16.5L209.84-16.5 206.47-17.19 206.47-19.53 215.85-21.92 217.36-21.04Q217.27-20.46 217.24-19.46 217.22-18.46 217.19-17.02 217.17-15.58 217.17-13.62L217.17-13.62 217.17-9.57Q217.17-8.94 217.22-7.79 217.27-6.64 217.41-4.74ZM233.96 0.39L233.96 0.39Q230.79 0.39 228.22-1 225.66-2.39 224.17-4.79 222.68-7.18 222.68-10.21L222.68-10.21Q222.68-13.33 224.27-16.02 225.86-18.7 228.69-20.36 231.52-22.02 235.23-22.02L235.23-22.02Q237.38-22.02 239.16-21.44 240.94-20.85 242.04-19.78 243.14-18.7 243.14-17.29L243.14-17.29Q243.14-15.97 242.31-15.31 241.48-14.65 240.36-14.65L240.36-14.65Q239.38-14.65 238.6-14.99 237.82-15.33 236.89-16.11L236.89-16.11 232.94-19.43 235.72-18.9Q234.45-19.14 233.21-18.43 231.96-17.72 231.18-16.16 230.4-14.6 230.4-12.21L230.4-12.21Q230.4-8.54 232.18-6.69 233.96-4.83 236.55-4.83L236.55-4.83Q237.77-4.83 239.09-5.42 240.41-6.01 241.73-7.52L241.73-7.52 243.34-6.05Q241.97-2.88 239.38-1.25 236.79 0.39 233.96 0.39ZM257.84 0L244.56 0 244.41-2.39 247.44-3.27Q247.48-3.91 247.56-5.35 247.63-6.79 247.68-8.47 247.73-10.16 247.73-11.38L247.73-11.38 247.73-17.58Q247.73-19.29 247.7-20.87 247.68-22.46 247.66-23.9 247.63-25.34 247.58-26.59 247.53-27.83 247.44-28.76L247.44-28.76 243.82-29.25 243.73-31.59 253.73-34.13 255.25-33.2Q255.15-31.74 255.08-30.35 255-28.96 254.93-27.29 254.86-25.63 254.81-23.41 254.76-21.19 254.71-18.07L254.71-18.07 254.86-18.02Q256.32-20.02 258.18-21.02 260.03-22.02 262.13-22.02L262.13-22.02Q264.28-22.02 265.94-20.95 267.6-19.87 268.58-17.87 269.56-15.87 269.56-13.09L269.56-13.09 269.56-8.15Q269.56-6.54 269.6-5.08 269.65-3.61 269.75-3.27L269.75-3.27 272.78-2.39 272.63 0 259.64 0 259.5-2.39 262.18-3.27Q262.28-3.81 262.33-4.69 262.38-5.57 262.4-6.54 262.43-7.52 262.43-8.2L262.43-8.2 262.43-11.91Q262.43-13.72 261.91-14.82 261.4-15.92 260.57-16.43 259.74-16.94 258.62-16.94L258.62-16.94Q257.59-16.94 256.62-16.48 255.64-16.02 254.91-15.09L254.91-15.09 254.91-7.96Q254.91-6.35 254.98-5 255.05-3.66 255.1-3.27L255.1-3.27 257.98-2.39 257.84 0ZM311.79-28.96L311.79-28.96 312.96-20.02 309.64-19.78 307.73-25.44Q307.25-25.54 306.66-25.56 306.07-25.59 305.34-25.59L305.34-25.59 303.78-25.59Q303.34-25.59 302.88-25.59 302.41-25.59 302.22-25.49L302.22-25.49Q302.22-25.2 302.19-23.66 302.17-22.12 302.14-19.97 302.12-17.82 302.12-15.53L302.12-15.53 302.12-11.67Q302.12-9.08 302.17-6.88 302.22-4.69 302.26-3.47L302.26-3.47 306.56-2.73 306.42 0 290.25 0 290.11-2.73 294.4-3.47Q294.5-4.69 294.55-6.88 294.6-9.08 294.6-11.67L294.6-11.67 294.6-15.53Q294.6-17.82 294.57-19.97 294.55-22.12 294.53-23.66 294.5-25.2 294.45-25.49L294.45-25.49Q294.31-25.59 293.84-25.59 293.38-25.59 292.94-25.59L292.94-25.59 291.33-25.59Q290.6-25.59 289.94-25.56 289.28-25.54 288.79-25.44L288.79-25.44 287.03-19.68 283.71-19.97 284.69-28.96Q285.22-28.91 286.2-28.88 287.18-28.86 288.32-28.81 289.47-28.76 290.55-28.71 291.62-28.66 292.3-28.66L292.3-28.66 304.22-28.66Q304.9-28.66 305.98-28.71 307.05-28.76 308.2-28.81 309.35-28.86 310.32-28.88 311.3-28.91 311.79-28.96ZM329.36-7.42L324.92 0.2 315.84-18.36 313.54-19.24 313.69-21.63 327.16-21.63 327.31-19.24 324.28-18.36 329.36-7.42ZM329.85-21.63L338.98-21.63 339.13-19.24 336.83-18.36 328.24-1.71 324.38 6.35Q323.01 9.18 321.57 10.16 320.13 11.13 318.57 11.13L318.57 11.13Q316.76 11.13 315.74 10.25 314.71 9.38 314.71 8.15L314.71 8.15Q314.71 6.88 315.69 5.91 316.67 4.93 318.57 4.44L318.57 4.44 324.72 2.78 321.11 4.93 327.21-6.2 327.9-7.47 332.73-18.36 329.7-19.24 329.85-21.63ZM354.12 10.74L339.66 10.74 339.52 8.35 342.54 7.47Q342.54 7.13 342.59 6.03 342.64 4.93 342.69 3.44 342.74 1.95 342.79 0.32 342.84-1.32 342.84-2.73L342.84-2.73 342.93-11.62Q342.93-13.09 342.86-14.11 342.79-15.14 342.54-16.5L342.54-16.5 339.42-17.19 339.42-19.53 348.65-21.92 350.16-21.04 349.77-17.92 349.92-17.82Q351.04-19.73 352.82-20.87 354.6-22.02 356.56-22.02L356.56-22.02Q358.8-22.02 360.83-20.85 362.86-19.68 364.15-17.41 365.44-15.14 365.44-11.82L365.44-11.82Q365.44-8.64 363.98-5.88 362.51-3.13 359.73-1.39 356.95 0.34 353.09 0.34L353.09 0.34Q352.41 0.34 351.63 0.22 350.84 0.1 350.01-0.15L350.01-0.15 350.01 2.73Q350.01 4.25 350.09 5.66 350.16 7.08 350.26 7.47L350.26 7.47 354.26 8.3 354.12 10.74ZM353.14-3.52L353.14-3.52Q354.46-3.52 355.51-4.13 356.56-4.74 357.19-6.2 357.83-7.67 357.78-10.11L357.78-10.11Q357.78-12.7 357.09-14.18 356.41-15.67 355.38-16.26 354.36-16.85 353.24-16.85L353.24-16.85Q352.36-16.85 351.5-16.41 350.65-15.97 350.01-15.23L350.01-15.23 350.01-4.35Q350.7-3.96 351.5-3.74 352.31-3.52 353.14-3.52ZM381.55 0L367.69 0 367.54-2.49 370.76-3.27Q370.81-3.47 370.86-4.25 370.91-5.03 370.96-6.05 371.01-7.08 371.01-8.06L371.01-8.06 371.06-11.72Q371.06-13.13 370.98-14.14 370.91-15.14 370.67-16.5L370.67-16.5 367.39-17.19 367.39-19.53 377.01-21.92 378.58-21.04Q378.43-19.43 378.36-17.82 378.28-16.21 378.28-14.21L378.28-14.21 378.28-7.96Q378.28-6.59 378.36-5.13 378.43-3.66 378.48-3.27L378.48-3.27 381.7-2.49 381.55 0ZM374.72-25.34L374.72-25.34Q372.47-25.34 371.25-26.66 370.03-27.98 370.03-29.69L370.03-29.69Q370.03-31.4 371.25-32.71 372.47-34.03 374.72-34.03L374.72-34.03Q376.96-34.03 378.14-32.71 379.31-31.4 379.31-29.69L379.31-29.69Q379.31-27.98 378.14-26.66 376.96-25.34 374.72-25.34ZM396.2 0L382.92 0 382.77-2.39 385.8-3.27Q385.85-3.47 385.9-4.25 385.95-5.03 386-6.05 386.04-7.08 386.04-8.06L386.04-8.06 386.09-11.72Q386.09-13.18 386.02-14.16 385.95-15.14 385.7-16.5L385.7-16.5 382.58-17.19 382.58-19.53 391.81-21.92 393.32-21.04 393.03-18.02 393.17-17.97Q394.64-19.97 396.52-21 398.4-22.02 400.5-22.02L400.5-22.02Q402.65-22.02 404.31-20.95 405.97-19.87 406.94-17.87 407.92-15.87 407.92-13.09L407.92-13.09 407.92-8.15Q407.92-6.54 407.97-5.1 408.02-3.66 408.11-3.27L408.11-3.27 411.14-2.39 411 0 398.01 0 397.86-2.39 400.55-3.27Q400.64-3.81 400.69-4.69 400.74-5.57 400.77-6.54 400.79-7.52 400.79-8.2L400.79-8.2 400.79-11.91Q400.79-13.72 400.28-14.82 399.76-15.92 398.93-16.43 398.1-16.94 396.98-16.94L396.98-16.94Q395.91-16.94 394.96-16.48 394-16.02 393.27-15.09L393.27-15.09 393.27-7.96Q393.27-6.54 393.34-5.1 393.42-3.66 393.47-3.27L393.47-3.27 396.35-2.39 396.2 0ZM423.69 11.13L423.69 11.13Q418.27 11.13 415.27 9.72 412.26 8.3 412.26 5.86L412.26 5.86Q412.26 4.2 414.17 2.83 416.07 1.46 419.05 0.88L419.05 0.88 421.2 0.98Q420.22 1.76 419.59 2.81 418.95 3.86 418.95 4.93L418.95 4.93Q418.95 6.45 420.29 7.3 421.64 8.15 424.27 8.15L424.27 8.15Q426.76 8.15 428.45 7.1 430.13 6.05 430.13 4.49L430.13 4.49Q430.13 3.37 429.38 2.83 428.62 2.29 426.76 2.15L426.76 2.15 420.07 1.51 419.73 1.27Q417.05 1.27 415.61 0.32 414.17-0.63 414.17-2.2L414.17-2.2Q414.17-3.81 415.83-5.18 417.49-6.54 420.32-7.32L420.32-7.32 421.15-6.54Q420.71-6.25 420.42-5.91 420.12-5.57 420.12-5.13L420.12-5.13Q420.12-4.64 420.42-4.39 420.71-4.15 421.25-4.05L421.25-4.05 429.35-3.27Q432.97-2.93 434.7-1.29 436.43 0.34 436.43 2.83L436.43 2.83Q436.43 5.13 434.8 7.03 433.16 8.94 430.26 10.03 427.35 11.13 423.69 11.13ZM423.83-5.71L423.83-5.71Q420.76-5.71 418.46-6.71 416.17-7.71 414.92-9.55 413.68-11.38 413.68-13.82L413.68-13.82Q413.68-16.26 415.07-18.12 416.46-19.97 418.81-21.04 421.15-22.12 424.13-22.12L424.13-22.12Q427.01-22.12 429.25-21 431.5-19.87 432.79-17.94 434.09-16.02 434.09-13.67L434.09-13.67Q434.09-11.33 432.82-9.52 431.55-7.71 429.23-6.71 426.91-5.71 423.83-5.71ZM424.27-8.79L424.27-8.79Q425.54-8.79 426.35-10.11 427.15-11.43 427.15-13.62L427.15-13.62Q427.15-16.06 426.32-17.55 425.49-19.04 424.08-19.04L424.08-19.04Q422.76-19.04 421.95-17.63 421.15-16.21 421.15-13.96L421.15-13.96Q421.15-11.67 422-10.23 422.86-8.79 424.27-8.79ZM436.68-21.48L436.68-17.29 429.89-18.07 428.72-20.46 436.68-21.48Z" opacity="1" transform="matrix(1,0,0,1,0,0)" fill="#ffffff" class="undefined-text-0" data-fill-palette-color="primary" id="text-0"></path></svg></g></svg></g><g transform="matrix(1,0,0,1,0,47.14955029345303)"><svg viewBox="0 0 395.52 25.42788359555605" height="25.42788359555605" width="395.52"><g transform="matrix(1,0,0,1,0,0)"><svg width="395.52" viewBox="1.9000000953674316 -36.349998474121094 790.949951171875 50.849998474121094" height="25.42788359555605" data-palette-color="#ffffff"><path d="M7.1-32.85Q6.1-32.85 5.55-32.7 5-32.55 4.55-32.25L4.55-32.25Q4.15-31.9 4-31.45 3.85-31 3.8-30.35L3.8-30.35 1.9-30.35Q2-32.5 3.3-33.7L3.3-33.7Q4.5-34.8 7.15-34.8L7.15-34.8 17.85-34.8Q20.7-34.8 22.95-33.7 25.2-32.6 26.48-30.6 27.75-28.6 27.75-26L27.75-26Q27.75-23.8 26.75-22.08 25.75-20.35 24.15-19.25L24.15-19.25Q23.15-18.55 21.2-18.3L21.2-18.3Q23-18.05 24.25-17.35L24.25-17.35Q26.7-16 28-13.98 29.3-11.95 29.3-9L29.3-9Q29.3-4.15 25.85-1.85 22.4 0.45 16.25 0.45L16.25 0.45Q11.35 0.45 9.3 0.2L9.3 0.2 7.1-0.05 7.1-32.85ZM16.45-1.5Q21.45-1.5 24.3-3.3 27.15-5.1 27.15-9.05L27.15-9.05Q27.15-11.55 25.93-13.4 24.7-15.25 22.65-16.25 20.6-17.25 18.15-17.25L18.15-17.25 13.7-17.25 13.7-19.2 17.8-19.2Q19.45-19.2 20.9-19.65 22.35-20.1 23.35-20.95L23.35-20.95Q25.55-22.85 25.55-26L25.55-26Q25.55-29.2 23.58-30.95 21.6-32.7 18.55-32.85L18.55-32.85 9.2-32.85 9.2-1.75 14.55-1.55 16.45-1.5ZM75.76-3.8Q75.76-2.6 76.31-2 76.86-1.4 77.76-1.4L77.76-1.4Q78.61-1.4 79.26-2.2L79.26-2.2 80.81-1.1Q79.66 0.5 77.71 0.5L77.71 0.5Q75.91 0.5 74.79-0.68 73.66-1.85 73.66-3.85L73.66-3.85 73.66-36.35 75.76-36.35 75.76-3.8ZM144.52-2.4L146.12-1.4Q145.62-0.55 144.75-0.1 143.87 0.35 142.92 0.35L142.92 0.35Q141.12 0.35 140.07-0.68 139.02-1.7 138.87-3.7L138.87-3.7Q137.82-1.8 135.67-0.68 133.52 0.45 130.82 0.45L130.82 0.45Q127.37 0.45 125-1.28 122.62-3 121.45-5.88 120.27-8.75 120.27-12.25L120.27-12.25Q120.27-16.15 121.72-19.07 123.17-22 125.9-23.63 128.62-25.25 132.37-25.25L132.37-25.25Q133.52-25.25 135.3-25.13 137.07-25 138.42-24.8L138.42-24.8 140.92-24.8 140.92-3.9Q140.92-2.7 141.47-2.13 142.02-1.55 142.92-1.55L142.92-1.55Q143.37-1.55 143.85-1.8 144.32-2.05 144.52-2.4L144.52-2.4ZM138.82-9.3L138.82-23Q138.02-22.95 135.22-23.15L135.22-23.15 132.17-23.25Q127.42-23.25 124.9-20.15 122.37-17.05 122.37-12.35L122.37-12.35Q122.37-9.55 123.35-7.08 124.32-4.6 126.25-3.08 128.17-1.55 130.87-1.55L130.87-1.55Q133.32-1.55 135.22-2.75 137.12-3.95 138.07-5.85L138.07-5.85Q138.82-7.35 138.82-9.3L138.82-9.3ZM185.33-0.45L200.58-22.8 187.18-22.8 187.18-24.75 204.33-24.75 204.33-24.55 190.23-3.95 194.73-2.35Q197.53-1.35 200.48-1.35L200.48-1.35Q201.73-1.35 202.78-1.68 203.83-2 205.33-2.95L205.33-2.95 206.28-1.35Q204.78-0.3 203.51 0.15 202.23 0.6 200.58 0.6L200.58 0.6Q197.83 0.6 194.38-0.5L194.38-0.5 189.08-2.2 186.98 0.8 185.33-0.45ZM250.75-3.8Q250.75-2.6 251.3-2 251.85-1.4 252.75-1.4L252.75-1.4Q253.6-1.4 254.25-2.2L254.25-2.2 255.8-1.1Q254.65 0.5 252.7 0.5L252.7 0.5Q250.9 0.5 249.77-0.68 248.65-1.85 248.65-3.85L248.65-3.85 248.65-25 250.75-25 250.75-3.8ZM249.7-28.75Q248.9-28.75 248.4-29.25 247.9-29.75 247.9-30.55L247.9-30.55Q247.9-31.35 248.4-31.85 248.9-32.35 249.7-32.35L249.7-32.35Q250.5-32.35 251.02-31.85 251.55-31.35 251.55-30.55L251.55-30.55Q251.55-29.75 251.02-29.25 250.5-28.75 249.7-28.75L249.7-28.75ZM320.31-2.2L321.86-1.1Q320.71 0.5 318.76 0.5L318.76 0.5Q316.96 0.5 315.83-0.68 314.71-1.85 314.71-3.85L314.71-3.85 314.71-16.85Q314.71-23.35 308.71-23.35L308.71-23.35Q306.21-23.35 304.13-22.08 302.06-20.8 299.91-17.9L299.91-17.9 299.91 0 297.81 0 297.81-18Q297.81-20.2 297.36-21.48 296.91-22.75 295.96-23.95L295.96-23.95 297.36-25.3Q298.46-24.25 299.13-22.88 299.81-21.5 299.91-20.05L299.91-20.05Q301.61-22.8 303.78-24.03 305.96-25.25 308.96-25.25L308.96-25.25Q312.71-25.25 314.76-23.35 316.81-21.45 316.81-17.9L316.81-17.9 316.81-3.8Q316.81-2.6 317.36-2 317.91-1.4 318.81-1.4L318.81-1.4Q319.66-1.4 320.31-2.2L320.31-2.2ZM374.62 14.25Q371.57 14.25 369.52 12.13 367.47 10 367.47 6.75L367.47 6.75Q367.47 2.55 370.62 0.4L370.62 0.4Q367.92 0.05 365.77-1.7 363.62-3.45 362.42-6.25 361.22-9.05 361.22-12.35L361.22-12.35Q361.22-16.05 362.79-19 364.37-21.95 367.14-23.63 369.92-25.3 373.37-25.3L373.37-25.3Q375.27-25.3 376.47-25.15L376.47-25.15 379.57-24.8 382.07-24.8 382.07 6.6Q382.07 10 379.99 12.13 377.92 14.25 374.62 14.25L374.62 14.25ZM371.67-1.5Q372.92-1.5 374.29-2.08 375.67-2.65 376.87-3.65L376.87-3.65Q378.27-4.85 379.12-6.28 379.97-7.7 379.97-8.85L379.97-8.85 379.97-23.1 374.77-23.4 373.12-23.4Q370.37-23.4 368.14-21.95 365.92-20.5 364.62-17.98 363.32-15.45 363.32-12.35L363.32-12.35Q363.32-9.4 364.44-6.93 365.57-4.45 367.49-2.98 369.42-1.5 371.67-1.5L371.67-1.5ZM374.87 12.35Q377.12 12.35 378.44 10.75 379.77 9.15 379.97 6.2L379.97 6.2 379.97-4.7Q379.02-2.95 377.02-1.35L377.02-1.35Q376.47-0.85 375.27-0.18 374.07 0.5 373.77 0.7L373.77 0.7Q373.47 0.85 372.47 1.45L372.47 1.45Q370.87 2.55 370.17 3.78 369.47 5 369.47 6.65L369.47 6.65Q369.47 9.05 371.02 10.7 372.57 12.35 374.87 12.35L374.87 12.35ZM429.68-3.8Q429.68-2.6 430.23-2 430.78-1.4 431.68-1.4L431.68-1.4Q432.53-1.4 433.18-2.2L433.18-2.2 434.73-1.1Q433.58 0.5 431.63 0.5L431.63 0.5Q429.83 0.5 428.71-0.68 427.58-1.85 427.58-3.85L427.58-3.85 427.58-36.35 429.68-36.35 429.68-3.8ZM488.14 14.5Q484.94 14.5 482.89 12.35 480.84 10.2 480.84 6.9L480.84 6.9Q480.84 4.75 481.92 2.95 482.99 1.15 484.84 0.3L484.84 0.3Q480.69 0.3 478.57-1.48 476.44-3.25 476.44-6.75L476.44-6.75 476.44-18.15Q476.44-20.35 475.99-21.63 475.54-22.9 474.59-24.1L474.59-24.1 475.99-25.45Q477.14-24.3 477.84-22.83 478.54-21.35 478.54-19.8L478.54-19.8 478.54-7.8Q478.54-4.55 479.94-3.08 481.34-1.6 484.49-1.6L484.49-1.6Q486.84-1.6 488.74-2.6 490.64-3.6 492.49-5.9L492.49-5.9Q492.89-6.65 493.07-7.2 493.24-7.75 493.24-8.4L493.24-8.4 493.29-25 495.39-25 495.34-6.7 495.34 6.25Q495.34 10.05 493.42 12.28 491.49 14.5 488.14 14.5L488.14 14.5ZM488.09 12.5Q490.44 12.5 491.84 10.85 493.24 9.2 493.24 6.45L493.24 6.45 493.24-3.95Q491.84-2.15 489.84-0.8L489.84-0.8Q488.09 0.2 487.04 0.75L487.04 0.75Q484.89 1.85 483.92 3.3 482.94 4.75 482.94 6.8L482.94 6.8Q482.94 9.3 484.37 10.9 485.79 12.5 488.09 12.5L488.09 12.5ZM594.72-32.25Q593.72-32.25 593.17-32.1 592.62-31.95 592.17-31.65L592.17-31.65Q591.77-31.3 591.62-30.85 591.47-30.4 591.42-29.75L591.42-29.75 589.52-29.75Q589.62-31.9 590.92-33.1L590.92-33.1Q592.12-34.2 594.77-34.2L594.77-34.2 616.22-34.2 616.22-32.2 596.82-32.2 596.82-19.15 610.12-19.15 610.12-17.15 596.82-17.15 596.82 0 594.72 0 594.72-32.25ZM678.48-2.4L680.08-1.4Q679.58-0.55 678.7-0.1 677.83 0.35 676.88 0.35L676.88 0.35Q675.08 0.35 674.03-0.68 672.98-1.7 672.83-3.7L672.83-3.7Q671.78-1.8 669.63-0.68 667.48 0.45 664.78 0.45L664.78 0.45Q661.33 0.45 658.95-1.28 656.58-3 655.4-5.88 654.23-8.75 654.23-12.25L654.23-12.25Q654.23-16.15 655.68-19.07 657.13-22 659.85-23.63 662.58-25.25 666.33-25.25L666.33-25.25Q667.48-25.25 669.25-25.13 671.03-25 672.38-24.8L672.38-24.8 674.88-24.8 674.88-3.9Q674.88-2.7 675.43-2.13 675.98-1.55 676.88-1.55L676.88-1.55Q677.33-1.55 677.8-1.8 678.28-2.05 678.48-2.4L678.48-2.4ZM672.78-9.3L672.78-23Q671.98-22.95 669.18-23.15L669.18-23.15 666.13-23.25Q661.38-23.25 658.85-20.15 656.33-17.05 656.33-12.35L656.33-12.35Q656.33-9.55 657.3-7.08 658.28-4.6 660.2-3.08 662.13-1.55 664.83-1.55L664.83-1.55Q667.28-1.55 669.18-2.75 671.08-3.95 672.03-5.85L672.03-5.85Q672.78-7.35 672.78-9.3L672.78-9.3ZM728.84 0.55Q726.29 0.55 724.09-0.35 721.89-1.25 719.84-3.15L719.84-3.15 721.04-4.6Q724.69-1.35 728.89-1.35L728.89-1.35Q731.74-1.35 733.59-2.8 735.44-4.25 735.44-6.7L735.44-6.7Q735.44-8.25 734.64-9.25 733.84-10.25 732.46-10.95 731.09-11.65 728.29-12.8L728.29-12.8Q725.69-13.85 724.29-14.6 722.89-15.35 722.01-16.53 721.14-17.7 721.14-19.45L721.14-19.45Q721.14-22.25 723.21-23.95 725.29-25.65 728.74-25.65L728.74-25.65Q731.94-25.65 734.69-23.9L734.69-23.9 733.69-22.3Q731.24-23.75 728.79-23.75L728.79-23.75Q726.34-23.75 724.81-22.55 723.29-21.35 723.29-19.45L723.29-19.45Q723.29-18.4 723.86-17.68 724.44-16.95 725.79-16.23 727.14-15.5 730.04-14.25L730.04-14.25Q733.04-12.95 734.49-12.1 735.94-11.25 736.76-10.05 737.59-8.85 737.59-6.95L737.59-6.95Q737.59-3.5 735.19-1.48 732.79 0.55 728.84 0.55L728.84 0.55ZM786.65 0.45Q780.35 0.45 780.35-7L780.35-7 780.35-31.15 782.45-31.15 782.45-25 790.5-25 790.5-23 782.45-23 782.45-7Q782.45-4.35 783.43-2.9 784.4-1.45 786.65-1.45L786.65-1.45Q789.6-1.45 791.35-4.3L791.35-4.3 792.85-3.2Q791.7-1.35 790.25-0.45 788.8 0.45 786.65 0.45L786.65 0.45Z" opacity="1" transform="matrix(1,0,0,1,0,0)" fill="#ffffff" class="undefined-text-1" data-fill-palette-color="secondary" id="text-1"></path></svg></g></svg></g></svg></g></svg></g></svg></g></svg></g></svg></g></svg></g></svg><rect width="395.52" height="247.2" fill="none" stroke="none" visibility="hidden"></rect></g></svg></g></svg>